
<svg width="134" height="110" viewBox="0 0 134 110" fill="none" xmlns="http://www.w3.org/2000/svg">
  <g filter="url(#filter0_d_311_30216)">
    <circle cx="56.423" cy="43.0949" r="32.3527" fill="#F8F9FF"/>
    <path fill-rule="evenodd" clip-rule="evenodd" d="M18.8296 52.2405C19.4251 51.6706 19.4251 50.7466 18.8296 50.1766L13.6813 45.2494L18.8296 40.3222C19.4251 39.7523 19.4251 38.8283 18.8296 38.2583C18.2341 37.6884 17.2686 37.6884 16.6731 38.2583L10.4466 44.2175C9.85113 44.7874 9.85113 45.7114 10.4466 46.2814L16.6731 52.2405C17.2686 52.8105 18.2341 52.8105 18.8296 52.2405Z" fill="#02004E"/>
    <path fill-rule="evenodd" clip-rule="evenodd" d="M95.1704 52.2405C94.5749 51.6706 94.5749 50.7466 95.1704 50.1766L100.319 45.2494L95.1704 40.3222C94.5749 39.7523 94.5749 38.8283 95.1704 38.2583C95.7659 37.6884 96.7314 37.6884 97.3269 38.2583L103.553 44.2175C104.149 44.7874 104.149 45.7114 103.553 46.2814L97.3269 52.2405C96.7314 52.8105 95.7659 52.8105 95.1704 52.2405Z" fill="#02004E"/>
    <path d="M56.9779 79.2582C74.2516 79.2582 88.3475 66.645 89.1339 49.832C89.1722 49.0134 88.4956 48.3477 87.6654 48.3477H83.7825H79.8996C79.0695 48.3477 78.3965 49.0119 78.3965 49.8314V54.7771C78.3965 57.9182 75.8169 60.4646 72.6348 60.4646H41.321C38.0005 60.4646 35.3087 57.8075 35.3087 54.5298V49.8314C35.3087 49.0119 34.6358 48.3477 33.8057 48.3477H30.1106H26.2903C25.4602 48.3477 24.7836 49.0134 24.8219 49.832C25.6083 66.645 39.7042 79.2582 56.9779 79.2582Z" fill="#BEC8FF"/>
    <path d="M53.8961 12.128V28.1618C53.8961 29.0051 53.2227 29.6932 52.3921 29.6932H40.1097C36.7872 29.6932 34.0938 32.4279 34.0938 35.8014V40.637C34.0938 41.4804 33.4205 42.1641 32.5899 42.1641H28.8299H25.07C24.2394 42.1641 23.5629 41.4785 23.5948 40.6357C24.2463 23.4509 35.8889 11.3309 52.3912 10.6366C53.2211 10.6016 53.8961 11.2846 53.8961 12.128Z" fill="#FFA70B"/>
    <path d="M59.4555 12.128V28.1618C59.4555 29.0051 60.1233 29.6932 60.9471 29.6932H73.1303C76.3761 29.6932 79.0266 32.352 79.0956 35.6741V40.637C79.0956 41.4804 79.7635 42.1641 80.5873 42.1641H84.4407H88.2942C89.118 42.1641 89.789 41.4785 89.7567 40.6357C89.0979 23.4507 77.3285 11.3306 60.948 10.6365C60.1249 10.6017 59.4555 11.2846 59.4555 12.128Z" fill="#5C7EF1"/>
    <path d="M39.0547 37.1238C39.0547 35.4655 40.3929 34.1211 42.0437 34.1211H71.9337C73.5845 34.1211 74.9228 35.4655 74.9228 37.1238V52.1375C74.9228 53.7959 73.5845 55.1403 71.9337 55.1403H42.0437C40.3929 55.1403 39.0547 53.7959 39.0547 52.1375V37.1238Z" fill="#02004E"/>
    <path d="M48.333 49.5859C46.9669 49.5859 45.8594 48.4957 45.8594 47.1508V41.5115C45.8594 40.1666 46.9669 39.0763 48.333 39.0763V39.0763C49.6992 39.0763 50.8067 40.1666 50.8067 41.5115V47.1508C50.8067 48.4957 49.6992 49.5859 48.333 49.5859V49.5859Z" fill="#FFA70B"/>
    <path d="M51.4297 64.3583C51.4297 62.9952 52.4818 63.1892 53.7797 63.1892H59.2217C60.5196 63.1892 61.3243 62.9952 61.3243 64.3583C61.3243 65.7214 59.2217 68.1254 56.377 68.1254C53.7797 68.1254 51.4297 65.7214 51.4297 64.3583Z" fill="#02004E"/>
    <path d="M65.0362 49.5859C63.67 49.5859 62.5625 48.4957 62.5625 47.1508V41.5115C62.5625 40.1666 63.67 39.0763 65.0362 39.0763V39.0763C66.4023 39.0763 67.5098 40.1666 67.5098 41.5115V47.1508C67.5098 48.4957 66.4023 49.5859 65.0362 49.5859V49.5859Z" fill="#FFA70B"/>
  </g>
  <defs>
    <filter id="filter0_d_311_30216" x="0" y="0.636719" width="134" height="108.621" filterUnits="userSpaceOnUse" color-interpolation-filters="sRGB">
      <feFlood flood-opacity="0" result="BackgroundImageFix"/>
      <feColorMatrix in="SourceAlpha" type="matrix" values="0 0 0 0 0 0 0 0 0 0 0 0 0 0 0 0 0 0 127 0" result="hardAlpha"/>
      <feOffset dx="10" dy="10"/>
      <feGaussianBlur stdDeviation="10"/>
      <feComposite in2="hardAlpha" operator="out"/>
      <feColorMatrix type="matrix" values="0 0 0 0 0.00784314 0 0 0 0 0 0 0 0 0 0.305882 0 0 0 0.14 0"/>
      <feBlend mode="normal" in2="BackgroundImageFix" result="effect1_dropShadow_311_30216"/>
      <feBlend mode="normal" in="SourceGraphic" in2="effect1_dropShadow_311_30216" result="shape"/>
    </filter>
  </defs>
</svg>